<svg preserveAspectRatio="xMinYMid" version="1.1" xmlns="http://www.w3.org/2000/svg" xmlns:xlink="http://www.w3.org/1999/xlink" viewBox="0 0 198.1 45">
<style type="text/css">
	.st0{fill:#D60B52;}
</style>
<g>
	<g>
		<path id="Path_1" class="st0" d="M70.8,31.2v-3H62v-4.5H70v-2.9H62v-4.1h8.7v-3h-12v17.5H70.8z"/>
		<path id="Path_2" class="st0" d="M82,13.7h-3.4v17.5H90v-3h-8V13.7z"/>
		<rect id="Rectangle_2" x="97.4" y="13.7" class="st0" width="3.4" height="17.5"/>
		<path id="Path_3" class="st0" d="M121.1,13.7v3h-8.3v4.4h7.9v3h-7.9v7.2h-3.4V13.7H121.1z"/>
		<rect id="Rectangle_3" x="128.7" y="13.7" class="st0" width="3.4" height="17.5"/>
		<path id="Path_4" class="st0" d="M151.8,25L143,13.7h-2.4v17.5h3.4V20l8.7,11.3h2.4V13.7h-3.4V25z"/>
		<path id="Path_5" class="st0" d="M162.5,16.8h5.6v14.5h3.4V16.8h5.6v-3h-14.6V16.8z"/>
		<path id="Path_6" class="st0" d="M194.2,13.7l-4.1,6.8l-4.1-6.8H182l6.3,10.1v7.4h3.4v-7.6l6.3-9.9L194.2,13.7z"/>
	</g>
	<g>
		<path id="Path_7" class="st0" d="M29.4,45c-3.6,0-7.9-2.9-10.8-7.1c-2.7-4.1-6.4-12.8-0.9-26c0.3-0.6,0.5-1.2,0.8-1.8
			c-1.2-0.1-2.5-0.1-3.7,0c-4.3,0.4-7.7,2.1-9.9,4.9c-2.7,3.4-3.7,8.4-3,14.1c0.2,2.4,1.2,4.7,2.8,6.5c0.7,0.8,1.7,1.2,2.7,1
			c1.2-0.3,2.2-1.7,2.7-3.6c0.1-0.4,0.6-0.7,1-0.6s0.7,0.6,0.6,1c-0.7,2.6-2.1,4.3-3.9,4.8c-1.6,0.4-3.3-0.2-4.4-1.4
			c-1.9-2.1-3-4.7-3.2-7.4c-0.8-6.2,0.4-11.6,3.3-15.4c2.6-3.2,6.3-5.1,11.1-5.5c1.6-0.1,3.1-0.1,4.7,0.1c1.3-2.6,3.1-4.9,5.4-6.7
			c2.2-1.7,5-2.2,7.6-1.3c5.8,2,10.2,11.1,7.5,21c-0.1,0.4-0.3,1-0.5,1.6c0.4,0.8,0.8,1.7,1.1,2.6c1.8,4.8,1.2,10.2-1.7,14.5
			C36.7,43.2,33.2,45.1,29.4,45L29.4,45z M20.3,10.3c-0.3,0.7-0.7,1.4-1,2.2c-5.2,12.5-1.8,20.7,0.7,24.5c2.9,4.4,6.8,6.4,9.4,6.4h0
			c3.2,0.1,6.2-1.5,8-4.1c2.5-3.9,3-8.7,1.4-13c-0.1-0.3-0.2-0.7-0.4-1c-1.2,2.7-3.2,5.9-6,6.9c-2,0.7-4.2,0.3-6.4-1.2
			c-5.8-4-6.8-12.3-6.8-12.6c-0.1-0.5,0.3-0.9,0.7-0.9s0.9,0.3,0.9,0.7c0,0.1,0.9,7.8,6.1,11.4c1.8,1.2,3.3,1.5,4.8,1
			c1.7-0.6,4-2.9,5.6-7.4c-1.8-3.4-4.4-6.4-7.5-8.7C27.2,12.3,23.9,10.9,20.3,10.3 M21.1,8.7c3.6,0.7,7,2.2,10,4.4
			c2.9,2.2,5.3,4.8,7.2,7.9l0,0c1.1-4,1-8.3-0.4-12.2c-1.3-3.5-3.5-5.9-6-6.8c-2.1-0.7-4.4-0.3-6.1,1.1C23.8,4.6,22.3,6.5,21.1,8.7"
			/>
		<path id="Path_8" class="st0" d="M11.8,19.5c0,0.8-0.7,1.5-1.5,1.5c-0.8,0-1.5-0.7-1.5-1.5s0.7-1.5,1.5-1.5l0,0
			C11.1,17.9,11.8,18.6,11.8,19.5"/>
	</g>
</g>
</svg>
